<svg viewBox="320 340 390 345" xmlns="http://www.w3.org/2000/svg" fill="#5255B6"><path d="M686.175171,560.229004 C666.133179,623.820374 610.765747,668.772827 544.799622,672.840698 C512.807312,674.813538 480.592682,673.181519 448.238953,673.181519 C448.238953,639.858093 448.238953,606.149353 448.238953,572.270020 C468.788727,572.270020 489.016083,572.270020 509.677917,572.270020 C509.677917,585.162415 509.677917,597.767029 509.677917,610.320984 C548.940308,614.360840 589.254028,603.918030 614.952759,564.782410 C635.795410,533.041809 634.654541,488.965790 612.241577,457.399719 C592.465759,429.547791 564.890320,415.830231 531.262024,415.294067 C486.615387,414.582245 441.949127,415.098053 397.291321,415.094757 C396.489716,415.094696 395.688080,415.199768 394.443054,415.286804 C394.443054,426.719391 394.443054,437.990906 394.443054,449.602753 C374.073029,449.602753 354.157227,449.602753 333.889069,449.602753 C333.889069,417.254028 333.889069,384.828308 333.889069,352.095795 C335.224945,351.982025 336.508972,351.776001 337.792847,351.777252 C402.280426,351.840851 466.769501,351.672821 531.255127,352.068817 C601.496704,352.500183 661.939087,395.713806 685.160522,462.034119 C696.483948,494.373779 695.692261,527.125000 686.175171,560.229004z" /><path d="M333.429871,550.999634 C333.429626,525.364990 333.429626,500.230347 333.429626,474.793579 C408.029236,474.793579 482.190979,474.793579 557.055298,474.793579 C549.671570,489.325806 542.607300,503.221985 535.550476,517.121887 C532.989563,522.166138 530.286438,527.146790 527.951843,532.294128 C526.401001,535.713501 524.424011,537.058167 520.402283,537.039062 C479.748535,536.846130 439.093475,536.921021 398.438812,536.920715 C397.286987,536.920715 396.135162,536.920715 394.499878,536.920715 C394.499878,582.513306 394.499878,627.885559 394.499878,673.602905 C374.128296,673.602905 354.237122,673.602905 333.430145,673.602905 C333.430145,632.975037 333.430145,592.237305 333.429871,550.999634z" /></svg>
